Coordinates
version=1
nRows=35
nColumns=34
inDegrees=no

Units are S.I. units (second, meters, Newtons, ...)
If the header above contains a line with 'inDegrees', this indicates whether rotational values are in degrees (yes) or radians (no).

endheader
time	pelvis_tilt	pelvis_list	pelvis_rotation	pelvis_tx	pelvis_ty	pelvis_tz	hip_flexion_r	hip_adduction_r	hip_rotation_r	knee_angle_r	ankle_angle_r	subtalar_angle_r	mtp_angle_r	hip_flexion_l	hip_adduction_l	hip_rotation_l	knee_angle_l	ankle_angle_l	subtalar_angle_l	mtp_angle_l	lumbar_extension	lumbar_bending	lumbar_rotation	arm_flex_r	arm_add_r	arm_rot_r	elbow_flex_r	pro_sup_r	arm_flex_l	arm_add_l	arm_rot_l	elbow_flex_l	pro_sup_l
0	-0.110336	0.02543	-0.0317719	-1.11833	1.26748	-0.573462	0.0849695	-0.0578164	-0.0553475	0.117452	0.34259	0.273892	0	0.0440538	0.00551171	0.0696199	0.0429534	0.197098	-0.079818	0	0.0431082	-0.0226204	-0.00246842	-0.112589	-0.141264	-0.018891	0.656079	2.05147	-0.0584814	-0.127589	-0.029111	0.562029	2.09
0.01	-0.1104	0.0259727	-0.032049	-1.11832	1.26745	-0.573527	0.0859598	-0.0584146	-0.0550103	0.119138	0.343817	0.273818	0	0.0441664	0.00603783	0.0688781	0.0431916	0.197298	-0.0791499	0	0.0422074	-0.0232515	-0.00214663	-0.111455	-0.141334	-0.0169916	0.65564	2.05164	-0.0583253	-0.129038	-0.0264927	0.56177	2.09
0.02	-0.110828	0.0261399	-0.0323504	-1.11835	1.26739	-0.573517	0.0875218	-0.0585763	-0.0549966	0.12112	0.345152	0.274548	0	0.0444556	0.00619599	0.0684331	0.0429482	0.197537	-0.0791353	0	0.0414099	-0.0235816	-0.00151498	-0.110167	-0.140805	-0.0162675	0.654558	2.05099	-0.0576769	-0.129547	-0.0258274	0.560889	2.09
0.03	-0.111399	0.0261326	-0.0326826	-1.1184	1.26731	-0.573478	0.089398	-0.0585932	-0.0555918	0.123404	0.346644	0.276241	0	0.0448347	0.00619747	0.0687914	0.0425187	0.197606	-0.0801563	0	0.0404703	-0.0236699	-0.000705284	-0.108954	-0.14006	-0.0161146	0.65352	2.04982	-0.0563661	-0.128973	-0.0278527	0.558924	2.09
0.04	-0.11168	0.0266147	-0.0329927	-1.11844	1.26727	-0.573511	0.0909886	-0.059358	-0.0573531	0.125825	0.348593	0.279256	0	0.0453297	0.00671068	0.0693332	0.0429164	0.197826	-0.0806755	0	0.0390484	-0.024161	-0.000217483	-0.107642	-0.139415	-0.0160899	0.652649	2.049	-0.0549921	-0.128036	-0.0317363	0.556645	2.09
0.05	-0.111679	0.0276103	-0.0331538	-1.11847	1.26726	-0.573625	0.0922145	-0.0609066	-0.0602061	0.128219	0.351059	0.283376	0	0.0461388	0.00777847	0.0691405	0.0445131	0.198826	-0.0792163	0	0.037211	-0.0252459	-0.000133554	-0.105957	-0.138648	-0.0168586	0.65132	2.04867	-0.0540316	-0.127338	-0.0357705	0.55503	2.09
0.06	-0.111815	0.028523	-0.0332232	-1.11849	1.26724	-0.573749	0.0938133	-0.0623791	-0.0631168	0.131023	0.353831	0.287563	0	0.0474235	0.00882143	0.0680153	0.0467368	0.200764	-0.0760952	0	0.0353424	-0.0262932	-4.42025e-05	-0.104247	-0.137932	-0.0180623	0.649881	2.04836	-0.0532539	-0.126829	-0.039239	0.553938	2.09
0.07	-0.112342	0.0291776	-0.033392	-1.11854	1.26719	-0.573835	0.096277	-0.0634353	-0.065468	0.134557	0.356656	0.291389	0	0.0492468	0.00962599	0.0662045	0.0491976	0.203188	-0.0723712	0	0.0337188	-0.0269405	0.000156408	-0.102794	-0.13736	-0.0194142	0.648836	2.04802	-0.0525123	-0.126637	-0.0420107	0.552733	2.09
0.08	-0.113115	0.02986	-0.0336303	-1.1186	1.26712	-0.573891	0.0991333	-0.0644916	-0.0680115	0.138264	0.359285	0.295789	0	0.051575	0.0104225	0.0637744	0.0521218	0.20595	-0.0680643	0	0.032243	-0.0274961	0.000258429	-0.101332	-0.136482	-0.021598	0.647659	2.04798	-0.0519375	-0.126963	-0.0444153	0.551154	2.09
0.09	-0.113848	0.0305648	-0.0337473	-1.11866	1.26706	-0.573944	0.10187	-0.0657116	-0.0715983	0.141888	0.361829	0.301573	0	0.0542463	0.0112057	0.0608598	0.0557309	0.209415	-0.0625948	0	0.0305521	-0.0281055	0.000329974	-0.0997885	-0.135531	-0.023593	0.646048	2.04809	-0.0513749	-0.127435	-0.0473515	0.54939	2.09
0.1	-0.11445	0.0310377	-0.0337403	-1.1187	1.26699	-0.573996	0.104748	-0.066804	-0.0758947	0.146199	0.364907	0.308147	0	0.057084	0.0117427	0.0578026	0.0599031	0.213553	-0.0561872	0	0.0285036	-0.0285574	0.000528329	-0.0984199	-0.135353	-0.0235589	0.644438	2.04797	-0.0507031	-0.127776	-0.0510493	0.547759	2.09
0.11	-0.115037	0.0312016	-0.0337851	-1.11872	1.26692	-0.574039	0.107953	-0.0675744	-0.0801597	0.151279	0.368668	0.314732	0	0.0599787	0.0119347	0.0546531	0.0643436	0.217884	-0.0495889	0	0.0263263	-0.0287145	0.000738911	-0.0972826	-0.135912	-0.0222161	0.64305	2.04797	-0.0501467	-0.128124	-0.0552082	0.546067	2.09
0.12	-0.115697	0.0311795	-0.0339718	-1.1187	1.26683	-0.574085	0.111105	-0.0681598	-0.0842215	0.156126	0.372406	0.321599	0	0.0629152	0.0118857	0.0511053	0.0688734	0.222329	-0.0428329	0	0.0241886	-0.0286115	0.000839343	-0.0962735	-0.13668	-0.0208953	0.641804	2.04887	-0.0497447	-0.128295	-0.0604178	0.54378	2.09
0.13	-0.116498	0.0312314	-0.0342269	-1.11865	1.26675	-0.574158	0.114305	-0.0689006	-0.0882378	0.160748	0.375838	0.328951	0	0.0660722	0.0119148	0.0470022	0.0735781	0.227154	-0.0353875	0	0.022112	-0.0284977	0.000846496	-0.0953308	-0.137641	-0.0192807	0.640523	2.05053	-0.0494089	-0.128123	-0.0669083	0.540965	2.09
0.14	-0.11753	0.0315212	-0.0344768	-1.11857	1.26664	-0.574242	0.118045	-0.069959	-0.0925612	0.165957	0.379452	0.336322	0	0.069589	0.0122376	0.0425873	0.078511	0.232304	-0.0273517	0	0.0201854	-0.0286234	0.000737751	-0.0944249	-0.138711	-0.0176581	0.638909	2.05231	-0.0493804	-0.128081	-0.0727536	0.538026	2.09
0.15	-0.1187	0.0318543	-0.0347286	-1.11847	1.2665	-0.574307	0.121972	-0.0710998	-0.0976784	0.171371	0.38338	0.343801	0	0.0731801	0.0125615	0.038544	0.0833699	0.237377	-0.0195963	0	0.018363	-0.0288076	0.000510867	-0.0936207	-0.139551	-0.017012	0.636993	2.05472	-0.0496158	-0.1284	-0.0767959	0.534675	2.09
0.16	-0.119841	0.0320768	-0.034938	-1.11833	1.26636	-0.574346	0.125511	-0.0721311	-0.103279	0.176283	0.387335	0.351647	0	0.0765054	0.0126052	0.0357104	0.0878246	0.241984	-0.0128581	0	0.0164752	-0.0288512	0.000304239	-0.0930031	-0.140253	-0.0168007	0.635062	2.05823	-0.0496141	-0.128851	-0.0807082	0.53067	2.08865
0.17	-0.121024	0.032443	-0.0350621	-1.11815	1.26624	-0.574361	0.129041	-0.073241	-0.108125	0.181195	0.391195	0.358998	0	0.0797419	0.0127116	0.03398	0.0920514	0.246048	-0.00727212	0	0.0145511	-0.0290751	0.000252463	-0.0925059	-0.141028	-0.0164242	0.633061	2.06147	-0.0496103	-0.129773	-0.0849397	0.526969	2.08503
0.18	-0.122342	0.0330847	-0.0352565	-1.11796	1.2661	-0.574362	0.132973	-0.0745508	-0.111588	0.186593	0.394804	0.365099	0	0.0832173	0.0132027	0.0318826	0.0965963	0.250075	-0.00218544	0	0.0126017	-0.0296805	0.000393923	-0.0920487	-0.141715	-0.0170926	0.630881	2.06281	-0.0502177	-0.131312	-0.0885551	0.524056	2.08412
0.19	-0.123687	0.0336227	-0.0356608	-1.11772	1.26594	-0.574381	0.136821	-0.07571	-0.11431	0.191813	0.397962	0.370494	0	0.0868717	0.0136377	0.0281765	0.101699	0.254891	0.00389112	0	0.0105113	-0.0302023	0.000717001	-0.0917936	-0.142315	-0.0194006	0.628788	2.0627	-0.0509641	-0.132269	-0.0939367	0.520625	2.08594
0.2	-0.125065	0.033819	-0.0361207	-1.11739	1.26578	-0.57442	0.140246	-0.0764428	-0.117056	0.196307	0.400832	0.375753	0	0.0906318	0.0135746	0.0231597	0.107181	0.260737	0.0119291	0	0.00835676	-0.0302749	0.00106537	-0.0918472	-0.143092	-0.0217516	0.626846	2.06239	-0.051379	-0.13218	-0.102756	0.516163	2.08723
0.21	-0.127397	0.0340281	-0.0363157	-1.1171	1.26555	-0.574457	0.145357	-0.0778956	-0.126008	0.202179	0.405946	0.389781	0	0.0974578	0.0121093	0.000673585	0.116659	0.277623	0.0493339	0	0.0069471	-0.0302872	0.000816382	-0.0916801	-0.143924	-0.0227567	0.624511	2.06159	-0.0526095	-0.132298	-0.113006	0.512829	2.09
0.22	-0.128843	0.0344308	-0.036331	-1.11679	1.26536	-0.574548	0.14875	-0.0785287	-0.125105	0.206465	0.408548	0.38918	0	0.101338	0.0126201	-0.000681618	0.121956	0.281326	0.0514307	0	0.00423382	-0.0304259	0.000301951	-0.0916092	-0.14494	-0.0239351	0.622739	2.06134	-0.0547727	-0.133987	-0.115976	0.510921	2.09
0.23	-0.130489	0.0344764	-0.0363035	-1.11643	1.26509	-0.574612	0.152274	-0.0787761	-0.124022	0.210856	0.411475	0.388633	0	0.105799	0.0125762	-0.00459857	0.128198	0.286893	0.0573313	0	0.00165119	-0.0303193	-0.000475797	-0.0922284	-0.146656	-0.024693	0.622096	2.06226	-0.0575357	-0.135549	-0.118945	0.509181	2.09
0.24	-0.132351	0.0337402	-0.036669	-1.11592	1.2648	-0.574575	0.155613	-0.0779881	-0.122986	0.214718	0.413972	0.388871	0	0.110769	0.0113553	-0.0102331	0.135479	0.293958	0.0660355	0	-0.000590866	-0.0294196	-0.000822888	-0.0936501	-0.149107	-0.0249603	0.622078	2.06491	-0.0596128	-0.135926	-0.125216	0.505291	2.09
0.25	-0.134953	0.0327642	-0.0372143	-1.11541	1.26447	-0.574508	0.159915	-0.0768942	-0.122495	0.218783	0.416206	0.390205	0	0.117406	0.00949727	-0.0183787	0.144475	0.302857	0.079292	0	-0.0022309	-0.0281887	-0.00111554	-0.0947228	-0.151154	-0.0262196	0.620966	2.06906	-0.0614359	-0.135736	-0.134131	0.500675	2.09
0.26	-0.137465	0.0322849	-0.0371904	-1.11492	1.26414	-0.574507	0.164116	-0.0763779	-0.121704	0.222926	0.418464	0.390264	0	0.123861	0.00849384	-0.0228459	0.153064	0.309803	0.0878799	0	-0.00434746	-0.0275145	-0.00191497	-0.095454	-0.152178	-0.0295242	0.619334	2.07128	-0.0640535	-0.136604	-0.140037	0.49786	2.0892
0.27	-0.140012	0.0320383	-0.036573	-1.11432	1.26376	-0.574544	0.168249	-0.0761866	-0.121094	0.227306	0.421287	0.389583	0	0.130235	0.00769692	-0.0270882	0.161572	0.317105	0.0973105	0	-0.00664348	-0.0270669	-0.00306401	-0.0968677	-0.152935	-0.0342545	0.618665	2.07334	-0.0673565	-0.137976	-0.144167	0.496298	2.08788
0.28	-0.142818	0.0316851	-0.0361728	-1.11367	1.26335	-0.574604	0.173061	-0.0759794	-0.120965	0.232575	0.42478	0.389718	0	0.1373	0.00645961	-0.0341049	0.171161	0.326089	0.110627	0	-0.00893659	-0.0262905	-0.00393689	-0.0988069	-0.154063	-0.0393776	0.61885	2.0764	-0.0699216	-0.138611	-0.150083	0.492991	2.08751
0.29	-0.145792	0.031321	-0.0364158	-1.11304	1.26295	-0.57467	0.178633	-0.0757078	-0.12039	0.238625	0.428446	0.389962	0	0.14499	0.00512927	-0.0415811	0.181612	0.334845	0.122916	0	-0.011472	-0.025436	-0.00469061	-0.100029	-0.155202	-0.0440749	0.61831	2.07862	-0.0718709	-0.138709	-0.158523	0.488261	2.0886
0.3	-0.149107	0.0309708	-0.0372664	-1.11246	1.26251	-0.574672	0.184696	-0.0750899	-0.118071	0.244563	0.431743	0.388562	0	0.153313	0.00353464	-0.0499293	0.19256	0.343707	0.135478	0	-0.0140478	-0.0246933	-0.00510011	-0.100684	-0.155924	-0.0493842	0.617172	2.07972	-0.0742801	-0.139038	-0.166401	0.48491	2.08921
0.31	-0.152541	0.0304698	-0.0385321	-1.11182	1.26204	-0.57458	0.190529	-0.0738574	-0.113628	0.249825	0.434401	0.385056	0	0.161655	0.00158901	-0.058104	0.203497	0.352463	0.147597	0	-0.0166844	-0.0238284	-0.00469391	-0.101809	-0.156884	-0.0544735	0.616602	2.08008	-0.0769802	-0.139513	-0.172175	0.48274	2.08847
0.32	-0.155533	0.0296643	-0.0395313	-1.11103	1.26157	-0.57444	0.195402	-0.0722259	-0.109251	0.254668	0.436694	0.381373	0	0.169193	-0.000274493	-0.0624509	0.214066	0.359608	0.154442	0	-0.0197658	-0.0227237	-0.00433033	-0.103496	-0.158254	-0.058383	0.616611	2.07978	-0.0794551	-0.140129	-0.1768	0.479707	2.08785
0.33	-0.158565	0.0284334	-0.0399467	-1.11012	1.26105	-0.574309	0.20024	-0.0701987	-0.105695	0.259786	0.438792	0.377396	0	0.17702	-0.00240099	-0.0652162	0.225229	0.366649	0.159855	0	-0.0229504	-0.0212264	-0.00499726	-0.104908	-0.159198	-0.0628792	0.61637	2.07884	-0.0819909	-0.141096	-0.18075	0.475627	2.08812
0.34	-0.161976	0.0271928	-0.0400516	-1.10918	1.26048	-0.57426	0.205767	-0.0682644	-0.102511	0.26559	0.441251	0.373183	0	0.185422	-0.00432119	-0.0667755	0.236699	0.373499	0.16396	0	-0.0261138	-0.0195687	-0.00655749	-0.105633	-0.159901	-0.0676092	0.615457	2.07715	-0.0845231	-0.142032	-0.183691	0.470684	2.08845
